<svg width="32" height="24" viewBox="0 0 32 24" fill="none" xmlns="http://www.w3.org/2000/svg">
<path d="M5.81937 23.9394V22.3435C5.81937 21.7389 5.43141 21.3399 4.78065 21.3399C4.45527 21.3399 4.09234 21.4487 3.84205 21.7873C3.65433 21.4971 3.37901 21.3399 2.96602 21.3399C2.6907 21.3399 2.41538 21.4246 2.20263 21.7147V21.4004H1.62695V23.9394H2.20263V22.5369C2.20263 22.0896 2.45292 21.8719 2.82836 21.8719C3.2038 21.8719 3.40404 22.1137 3.40404 22.5369V23.9394H3.97971V22.5369C3.97971 22.0896 4.25503 21.8719 4.60544 21.8719C4.9934 21.8719 5.18112 22.1137 5.18112 22.5369V23.9394H5.81937ZM14.3669 21.3883H13.4283V20.6145H12.8526V21.3883H12.327V21.8961H12.8526V23.0689C12.8526 23.6493 13.1029 23.9999 13.7537 23.9999C14.004 23.9999 14.2793 23.9152 14.467 23.8185L14.3043 23.3349C14.1416 23.4437 13.9414 23.4679 13.8037 23.4679C13.5284 23.4679 13.4158 23.3107 13.4158 23.0447V21.9082H14.3544V21.3883H14.3669ZM19.2601 21.3399C18.9347 21.3399 18.7095 21.4971 18.5718 21.7147V21.4004H17.9961V23.9394H18.5718V22.5006C18.5718 22.0775 18.7595 21.8356 19.1225 21.8356C19.2351 21.8356 19.3727 21.8598 19.4854 21.884L19.6481 21.352C19.5354 21.3399 19.3727 21.3399 19.2601 21.3399ZM11.8639 21.6059C11.5886 21.4246 11.2007 21.3399 10.7877 21.3399C10.1244 21.3399 9.6864 21.6543 9.6864 22.1621C9.6864 22.5853 10.0118 22.8271 10.5875 22.8996L10.8628 22.9238C11.1631 22.9722 11.3258 23.0568 11.3258 23.1898C11.3258 23.3712 11.1006 23.5042 10.7251 23.5042C10.3497 23.5042 10.0368 23.3712 9.84909 23.2382L9.57377 23.6613C9.87412 23.879 10.2871 23.9757 10.7001 23.9757C11.4635 23.9757 11.914 23.6251 11.914 23.1535C11.914 22.7062 11.5511 22.4644 11.013 22.3797L10.7376 22.3555C10.4873 22.3314 10.2996 22.2709 10.2996 22.1137C10.2996 21.9324 10.4873 21.8236 10.8002 21.8236C11.1256 21.8236 11.4635 21.9566 11.6262 22.0412L11.8639 21.6059ZM27.1944 21.3399C26.869 21.3399 26.6438 21.4971 26.5061 21.7147V21.4004H25.9304V23.9394H26.5061V22.5006C26.5061 22.0775 26.6938 21.8356 27.0568 21.8356C27.1694 21.8356 27.307 21.8598 27.4197 21.884L27.5824 21.352C27.4697 21.3399 27.307 21.3399 27.1944 21.3399ZM19.8358 22.6699C19.8358 23.4437 20.3864 23.9999 21.2374 23.9999C21.6254 23.9999 21.9007 23.9152 22.176 23.7097L21.9007 23.2623C21.6754 23.4195 21.4627 23.5042 21.2124 23.5042C20.7494 23.5042 20.4115 23.1898 20.4115 22.682C20.4115 22.1984 20.7368 21.884 21.2124 21.8598C21.4627 21.8598 21.6754 21.9445 21.9007 22.1016L22.176 21.6543C21.9007 21.4367 21.6254 21.3641 21.2374 21.3641C20.3864 21.3399 19.8358 21.8961 19.8358 22.6699ZM25.167 22.6699V21.4004H24.5914V21.7147C24.4036 21.4729 24.1283 21.3399 23.7654 21.3399C23.027 21.3399 22.4514 21.8961 22.4514 22.6699C22.4514 23.4437 23.027 23.9999 23.7654 23.9999C24.1534 23.9999 24.4287 23.8669 24.5914 23.6251V23.9394H25.167V22.6699ZM23.0521 22.6699C23.0521 22.2225 23.3524 21.8477 23.853 21.8477C24.316 21.8477 24.6539 22.1984 24.6539 22.6699C24.6539 23.1173 24.3286 23.4921 23.853 23.4921C23.3524 23.4679 23.0521 23.1173 23.0521 22.6699ZM16.1565 21.3399C15.3931 21.3399 14.8424 21.8719 14.8424 22.6699C14.8424 23.4679 15.3931 23.9999 16.194 23.9999C16.582 23.9999 16.9574 23.8911 17.2703 23.6493L16.995 23.2503C16.7697 23.4074 16.4944 23.5163 16.2316 23.5163C15.8686 23.5163 15.5182 23.3591 15.4306 22.9117H17.3829V22.6941C17.3954 21.8719 16.8948 21.3399 16.1565 21.3399ZM16.1565 21.8115C16.5194 21.8115 16.7572 22.0291 16.8198 22.416H15.4431C15.4932 22.0775 15.7435 21.8115 16.1565 21.8115ZM30.4733 22.6699V20.3848H29.8976V21.7147C29.7099 21.4729 29.4345 21.3399 29.0716 21.3399C28.3333 21.3399 27.7576 21.8961 27.7576 22.6699C27.7576 23.4437 28.3333 23.9999 29.0716 23.9999C29.4596 23.9999 29.7349 23.8669 29.8976 23.6251V23.9394H30.4733V22.6699ZM28.3458 22.6699C28.3458 22.2225 28.6461 21.8477 29.1467 21.8477C29.6097 21.8477 29.9476 22.1984 29.9476 22.6699C29.9476 23.1173 29.6223 23.4921 29.1467 23.4921C28.6586 23.4679 28.3458 23.1173 28.3458 22.6699ZM9.06066 22.6699V21.4004H8.48499V21.7147C8.29727 21.4729 8.02195 21.3399 7.65902 21.3399C6.92066 21.3399 6.34498 21.8961 6.34498 22.6699C6.34498 23.4437 6.92066 23.9999 7.65902 23.9999C8.04698 23.9999 8.3223 23.8669 8.48499 23.6251V23.9394H9.06066V22.6699ZM6.92066 22.6699C6.92066 22.2225 7.22101 21.8477 7.7216 21.8477C8.18464 21.8477 8.52253 22.1984 8.52253 22.6699C8.52253 23.1173 8.19715 23.4921 7.7216 23.4921C7.22101 23.4679 6.92066 23.1173 6.92066 22.6699Z" fill="black"/>
<path d="M20.3362 2.04346H11.676V17.0722H20.3362V2.04346Z" fill="#FF5F00"/>
<path d="M12.2268 9.55164C12.2268 6.50479 13.7161 3.79647 15.9937 2.04332C14.3168 0.773804 12.2018 0 9.88659 0C4.41768 0 0 4.26801 0 9.55164C0 14.8353 4.41768 19.1033 9.88659 19.1033C12.1893 19.1033 14.3043 18.3295 15.9812 17.06C13.7036 15.3431 12.2268 12.6106 12.2268 9.55164Z" fill="#EB001B"/>
<path d="M32 9.55164C32 14.8353 27.5824 19.1033 22.1134 19.1033C19.8107 19.1033 17.6958 18.3295 16.0188 17.06C18.3215 15.3068 19.7857 12.5985 19.7857 9.55164C19.7857 6.50479 18.2965 3.79647 16.0188 2.04332C17.6958 0.773804 19.8107 0 22.1134 0C27.5824 0 32 4.30428 32 9.55164Z" fill="#F79E1B"/>
</svg>

