<svg width="56" height="16" viewBox="0 0 56 16" fill="none" xmlns="http://www.w3.org/2000/svg">
<path d="M10.7918 2.57171C10.1521 1.8534 8.99583 1.54545 7.51665 1.54545H3.22355C3.07712 1.54537 2.93547 1.59679 2.82409 1.69044C2.71271 1.78409 2.63891 1.91384 2.61598 2.05632L0.829194 13.2266C0.820909 13.2784 0.824124 13.3314 0.83862 13.3819C0.853115 13.4324 0.878545 13.4791 0.913157 13.519C0.94777 13.5589 0.990743 13.5909 1.03911 13.6128C1.08749 13.6347 1.14011 13.646 1.19335 13.646H3.84373L4.50938 9.48636L4.48874 9.61662C4.51124 9.47442 4.58454 9.34481 4.69545 9.25115C4.80635 9.15748 4.94756 9.10592 5.09364 9.10575H6.3531C8.82732 9.10575 10.7647 8.11563 11.3306 5.25144C11.3474 5.16673 11.3619 5.08428 11.3745 5.00372C11.5427 3.94508 11.3734 3.22451 10.7922 2.57209" fill="#003087"/>
<path d="M10.7918 2.57171C10.1521 1.8534 8.99583 1.54545 7.51665 1.54545H3.22355C3.07712 1.54537 2.93547 1.59679 2.82409 1.69044C2.71271 1.78409 2.63891 1.91384 2.61598 2.05632L0.829194 13.2266C0.820909 13.2784 0.824124 13.3314 0.83862 13.3819C0.853115 13.4324 0.878545 13.4791 0.913157 13.519C0.94777 13.5589 0.990743 13.5909 1.03911 13.6128C1.08749 13.6347 1.14011 13.646 1.19335 13.646H3.84373L4.50938 9.48636L4.48874 9.61662C4.51124 9.47442 4.58454 9.34481 4.69545 9.25115C4.80635 9.15748 4.94756 9.10592 5.09364 9.10575H6.3531C8.82732 9.10575 10.7647 8.11563 11.3306 5.25144C11.3474 5.16673 11.3619 5.08428 11.3745 5.00372C11.5427 3.94508 11.3734 3.22451 10.7922 2.57209" fill="#003087"/>
<path d="M5.22428 5.01753C5.24436 4.89303 5.30882 4.77966 5.4061 4.69776C5.50337 4.61586 5.62708 4.5708 5.75504 4.57066H9.12074C9.51929 4.57066 9.89109 4.59626 10.2308 4.64972C10.4165 4.67916 10.6003 4.71964 10.781 4.77094C10.9863 4.82781 11.185 4.90579 11.3737 5.0036C11.5426 3.94459 11.3729 3.2244 10.7917 2.5716C10.1517 1.85367 8.99578 1.54571 7.5166 1.54571H3.22312C3.07682 1.54581 2.93536 1.59731 2.82414 1.69095C2.71291 1.78458 2.63923 1.91423 2.61632 2.05658L0.828766 13.2257C0.820425 13.2776 0.823586 13.3305 0.838031 13.381C0.852476 13.4315 0.877862 13.4783 0.912439 13.5182C0.947016 13.5581 0.989963 13.5902 1.03832 13.6122C1.08668 13.6341 1.13929 13.6455 1.19254 13.6455H3.8433L4.50895 9.4855L5.22428 5.01753Z" fill="#003087"/>
<path d="M11.3739 5.00346C11.3608 5.08629 11.3462 5.16887 11.33 5.25117C10.7641 8.11499 8.82674 9.10549 6.35252 9.10549H5.09268C4.94662 9.10559 4.80542 9.15714 4.69456 9.25083C4.58371 9.34451 4.5105 9.47416 4.48816 9.61636L3.84315 13.6454L3.65973 14.7883C3.65244 14.8337 3.65522 14.8801 3.66788 14.9243C3.68055 14.9685 3.70279 15.0095 3.73308 15.0444C3.76338 15.0794 3.801 15.1074 3.84335 15.1266C3.88571 15.1458 3.93179 15.1558 3.97842 15.1558H6.21267C6.47709 15.1558 6.70178 14.966 6.74343 14.7089L6.76521 14.5967L7.1863 11.9674L7.21305 11.8221C7.23307 11.6975 7.29757 11.584 7.39494 11.5021C7.49231 11.4202 7.61616 11.3752 7.7442 11.3752H8.07855C10.2429 11.3752 11.9376 10.5094 12.4328 8.00356C12.6391 6.95697 12.5321 6.08243 11.9857 5.4684C11.8122 5.27803 11.6049 5.12047 11.3739 5.00346Z" fill="#009CDE"/>
<path d="M10.7814 4.77102C10.695 4.7458 10.606 4.72321 10.5143 4.70326C10.4226 4.6833 10.3278 4.66561 10.2308 4.65055C9.89067 4.59596 9.51925 4.57036 9.12032 4.57036H5.755C5.62691 4.57021 5.50298 4.61521 5.40564 4.69724C5.30829 4.77927 5.24395 4.89291 5.22424 5.01761L4.50892 9.48633L4.48828 9.61621C4.51062 9.47401 4.58382 9.34436 4.69468 9.25068C4.80554 9.15699 4.94674 9.10544 5.09279 9.10534H6.35264C8.82685 9.10534 10.7642 8.11522 11.3301 5.25102C11.3469 5.16632 11.3611 5.08425 11.3741 5.0033C11.2246 4.92626 11.0689 4.86154 10.9086 4.8098C10.867 4.79624 10.8246 4.78344 10.7814 4.77064" fill="#012169"/>
<path fill-rule="evenodd" clip-rule="evenodd" d="M18.9385 5.15186H21.9022C22.8938 5.15186 23.6412 5.40974 24.0627 5.89765C24.446 6.34151 24.5732 6.97548 24.4406 7.78188C24.1464 9.62697 23.0199 10.5576 21.0673 10.5576H20.1296C19.927 10.5576 19.7543 10.7029 19.723 10.9002L19.3993 12.92C19.3676 13.1172 19.1953 13.2626 18.9928 13.2626H17.5774C17.5417 13.2626 17.5065 13.2549 17.4741 13.2402C17.4417 13.2255 17.4129 13.204 17.3897 13.1773C17.3665 13.1506 17.3495 13.1192 17.3398 13.0854C17.3302 13.0516 17.328 13.0161 17.3336 12.9813L18.5315 5.49444C18.5633 5.29717 18.736 5.15186 18.9385 5.15186ZM20.4838 8.93464C21.2698 8.93464 22.0822 8.93464 22.2442 7.88654C22.3031 7.51873 22.2561 7.25219 22.1001 7.07261C21.8395 6.77257 21.3344 6.77257 20.7994 6.77257H20.5942C20.4727 6.77257 20.3695 6.85953 20.3504 6.97774L20.0367 8.93464H20.4838Z" fill="#009CDE"/>
<path fill-rule="evenodd" clip-rule="evenodd" d="M29.3417 7.85266H30.7609C30.7966 7.85262 30.8315 7.86058 30.864 7.87527C30.8964 7.88996 30.9253 7.91141 30.9485 7.93814C30.9718 7.96487 30.9889 7.99624 30.9986 8.03009C31.0084 8.06395 31.0106 8.09949 31.005 8.13426L30.2377 12.9203C30.206 13.118 30.0333 13.2629 29.8308 13.2629H28.553C28.5173 13.263 28.482 13.2554 28.4495 13.2407C28.4171 13.226 28.3883 13.2046 28.365 13.1778C28.3418 13.1511 28.3248 13.1197 28.3151 13.0858C28.3054 13.052 28.3032 13.0165 28.3088 12.9817L28.3722 12.5932C28.3722 12.5932 27.6714 13.3928 26.4074 13.3928C25.671 13.3928 25.0532 13.1839 24.6202 12.682C24.1487 12.1358 23.9561 11.3531 24.0918 10.5335C24.3524 8.8921 25.6917 7.72127 27.2595 7.72127C27.9435 7.72127 28.6286 7.86847 28.9359 8.30782L29.0352 8.44937L29.0971 8.05859C29.1062 8.00116 29.1359 7.94884 29.1808 7.91108C29.2256 7.87331 29.2827 7.85259 29.3417 7.85266ZM27.1812 11.9099C28.0024 11.9099 28.6455 11.3734 28.783 10.5746C28.8453 10.1879 28.7597 9.83704 28.5423 9.58594C28.326 9.33671 27.9993 9.20495 27.5962 9.20495C26.7876 9.20495 26.1334 9.75836 26.0058 10.5505C25.9393 10.9386 26.018 11.2876 26.2282 11.5323C26.4399 11.7793 26.7696 11.9099 27.1812 11.9099Z" fill="#009CDE"/>
<path d="M36.8927 7.85307H38.3195C38.3646 7.85308 38.4089 7.86527 38.4474 7.88829C38.486 7.91132 38.5174 7.94432 38.5383 7.9837C38.5591 8.02308 38.5687 8.06733 38.5658 8.11167C38.563 8.156 38.5478 8.19872 38.5221 8.23518L33.7785 14.9808C33.7013 15.09 33.5748 15.1551 33.4403 15.1551H32.015C31.9697 15.1551 31.9253 15.1428 31.8866 15.1196C31.848 15.0963 31.8165 15.0631 31.7957 15.0235C31.7749 14.9839 31.7655 14.9394 31.7686 14.8949C31.7717 14.8504 31.7871 14.8076 31.8132 14.7711L33.2905 12.7175L31.72 8.17495C31.7073 8.13829 31.7036 8.09918 31.7094 8.06086C31.7151 8.02254 31.73 7.98611 31.7528 7.9546C31.7757 7.92309 31.8059 7.89741 31.8408 7.87969C31.8758 7.86196 31.9145 7.85271 31.9538 7.85269H33.3558C33.4445 7.85281 33.5308 7.88108 33.6019 7.93329C33.673 7.9855 33.7251 8.05888 33.7506 8.14257L34.5847 10.8863L36.5526 8.03114C36.6291 7.9197 36.7563 7.85307 36.8927 7.85307Z" fill="#009CDE"/>
<path fill-rule="evenodd" clip-rule="evenodd" d="M43.041 5.15193H40.0773C39.9791 5.15198 39.8842 5.1865 39.8096 5.24928C39.7349 5.31207 39.6854 5.39902 39.67 5.49452L38.4724 12.9814C38.4669 13.0161 38.4691 13.0516 38.4788 13.0854C38.4885 13.1192 38.5055 13.1505 38.5287 13.1772C38.5518 13.204 38.5806 13.2254 38.6129 13.2402C38.6453 13.2549 38.6805 13.2626 38.7162 13.2626H40.237C40.3788 13.2626 40.4995 13.161 40.5217 13.0232L40.8618 10.8999C40.8931 10.703 41.0658 10.5573 41.2684 10.5573H42.2061C44.1587 10.5573 45.2852 9.62705 45.5794 7.78196C45.712 6.97556 45.5848 6.34158 45.2015 5.89772C44.78 5.40981 44.0326 5.15193 43.041 5.15193ZM43.383 7.88662C43.221 8.93472 42.4086 8.93472 41.623 8.93472H41.1759L41.4896 6.97782C41.5087 6.85961 41.6119 6.77264 41.7334 6.77264H41.9386C42.4736 6.77264 42.9787 6.77264 43.2393 7.07269C43.3949 7.25227 43.4419 7.51881 43.383 7.88662Z" fill="#009CDE"/>
<path fill-rule="evenodd" clip-rule="evenodd" d="M51.8997 7.85266H50.4805C50.4215 7.85259 50.3644 7.87331 50.3195 7.91108C50.2747 7.94884 50.245 8.00117 50.2359 8.05859L50.174 8.44937L50.0746 8.30782C49.7674 7.86848 49.0823 7.72128 48.3983 7.72128C46.8308 7.72128 45.4915 8.8921 45.2305 10.5335C45.0949 11.3531 45.2878 12.1358 45.7594 12.682C46.1923 13.1839 46.8102 13.3928 47.5465 13.3928C48.811 13.3928 49.5118 12.5932 49.5118 12.5932L49.4484 12.9817C49.4426 13.0164 49.4447 13.0519 49.4543 13.0858C49.4639 13.1197 49.4809 13.151 49.504 13.1778C49.5272 13.2046 49.556 13.226 49.5884 13.2407C49.6208 13.2554 49.6561 13.263 49.6918 13.2629H50.9692C51.1717 13.2629 51.3444 13.118 51.3765 12.9203L52.1438 8.13426C52.1493 8.09949 52.1472 8.06395 52.1374 8.0301C52.1276 7.99624 52.1105 7.96487 52.0873 7.93814C52.0641 7.91141 52.0352 7.88997 52.0028 7.87527C51.9703 7.86058 51.9354 7.85262 51.8997 7.85266ZM49.9218 10.5746C49.7842 11.3734 49.1411 11.9099 48.32 11.9099C47.9084 11.9099 47.5786 11.7793 47.367 11.5323C47.1568 11.2876 47.0781 10.9386 47.1446 10.5505C47.2722 9.75836 47.926 9.20495 48.7349 9.20495C49.1381 9.20495 49.4648 9.33671 49.6811 9.58594C49.8985 9.83704 49.9841 10.1879 49.9218 10.5746Z" fill="#009CDE"/>
<path d="M52.3555 12.9818L53.5722 5.35791C53.5812 5.30055 53.6108 5.2479 53.6556 5.21019C53.7004 5.17248 53.7574 5.15183 53.8163 5.15198H55.1851C55.2208 5.15193 55.2561 5.15951 55.2886 5.1742C55.321 5.1889 55.3498 5.21035 55.373 5.23709C55.3963 5.26383 55.4133 5.2952 55.423 5.32906C55.4327 5.36292 55.4349 5.39845 55.4293 5.4332L54.2298 12.9205C54.1981 13.1177 54.0254 13.2631 53.8228 13.2631H52.5997C52.564 13.263 52.5287 13.2554 52.4963 13.2407C52.4639 13.226 52.4351 13.2045 52.4119 13.1778C52.3887 13.1511 52.3716 13.1197 52.3619 13.0859C52.3522 13.0521 52.35 13.0166 52.3555 12.9818Z" fill="#009CDE"/>
</svg>

