<svg width="40" height="12" viewBox="0 0 40 12" fill="none" xmlns="http://www.w3.org/2000/svg">
<g clip-path="url(#clip0)">
<path d="M26.1777 0C27.4221 0 28.4443 0.26087 29.0888 0.478261L28.6443 3L28.3554 2.86957C27.7777 2.63043 26.9999 2.3913 25.9332 2.41304C24.6888 2.41304 24.0888 2.91304 24.0888 3.41304C24.0888 3.95652 24.7777 4.32609 25.911 4.84783C27.7777 5.67391 28.6443 6.69565 28.6221 8C28.5777 10.413 26.3777 11.9783 22.9777 11.9783C21.5332 11.9565 20.1332 11.6739 19.3777 11.3478L19.8221 8.73913L20.2443 8.93478C21.311 9.36956 21.9999 9.54348 23.2888 9.54348C24.2221 9.54348 25.2221 9.19565 25.2221 8.41304C25.2443 7.91304 24.8221 7.56522 23.5554 6.97826C22.311 6.43478 20.6888 5.5 20.711 3.82609C20.711 1.56522 22.9554 0 26.1777 0Z" fill="#0058A0"/>
<path d="M16.111 0.195639L14.0888 11.8261H17.3332L19.3555 0.195639H16.111Z" fill="#0058A0"/>
<path fill-rule="evenodd" clip-rule="evenodd" d="M37.3999 0.217424H34.8888C34.111 0.217424 33.5332 0.434815 33.1777 1.17395L28.3777 11.8479H31.7777C31.7777 11.8479 32.3332 10.4131 32.4666 10.1087H36.6221C36.711 10.5 37.0221 11.8479 37.0221 11.8479H39.9999L37.3999 0.217424ZM33.3999 7.69568C33.6666 7.04351 34.6888 4.45655 34.6888 4.45655C34.6781 4.46702 34.7396 4.31107 34.8236 4.098C34.9139 3.86869 35.0304 3.57323 35.111 3.34786L35.3332 4.34786C35.3332 4.34786 35.9555 7.13047 36.0888 7.69568H33.3999Z" fill="#0058A0"/>
<path d="M8.19991 8.13047L11.3777 0.217424H14.7999L9.71102 11.8261H6.2888L3.37769 1.65221C5.42213 2.65221 7.26658 4.65221 7.86658 6.52177L8.19991 8.13047Z" fill="#0058A0"/>
<path fill-rule="evenodd" clip-rule="evenodd" d="M5.26667 0.195801H0.0222222L0 0.45667C4.04444 1.41319 6.75556 3.73928 7.86667 6.54363L6.71111 1.1958C6.53333 0.45667 5.97778 0.21754 5.26667 0.195801Z" fill="#FAA61A"/>
</g>
<defs>
<clipPath id="clip0">
<rect width="40" height="12" fill="white"/>
</clipPath>
</defs>
</svg>

