<svg width="20" height="25" viewBox="0 0 20 25" fill="none" xmlns="http://www.w3.org/2000/svg">
<path d="M0 12.4056C0 11.0032 0.121069 10.1133 3.13848 7.93779C5.62505 6.13988 13.6249 0 13.6249 0V10.2481H20V25H1.89985C0.856795 25 0 24.173 0 23.1661V12.4056Z" fill="#FFCF01"/>
<path d="M13.625 10.248V16.1902L2.44946 23.5346L16.5773 19.1028V10.248H13.625Z" fill="#D3AB07"/>
<path d="M8.51218 9.94222C9.16409 9.1871 10.1233 8.9264 10.6449 9.34891C11.1664 9.77142 11.0639 10.7243 10.412 11.4794C9.76012 12.2346 8.80088 12.4953 8.27936 12.0728C7.75783 11.6502 7.86027 10.6973 8.51218 9.94222Z" fill="black"/>
</svg>

